<svg width="100" height="100" viewBox="0 0 100 100" fill="none" xmlns="http://www.w3.org/2000/svg">
<path d="M46.6407 24.5156C48.875 31.2187 46.5938 37.9844 41.5469 39.6406C36.5 41.2969 30.5938 37.2031 28.3594 30.5C26.125 23.7969 28.4063 17.0312 33.4532 15.375C38.5 13.7187 44.4063 17.8125 46.6407 24.5156ZM25.6875 41.0312C28.6407 46.0937 27.9219 51.9844 24.0938 54.1719C20.2657 56.3594 14.7657 54.0312 11.8282 48.9687C8.89066 43.9062 9.59379 38.0156 13.4219 35.8281C17.25 33.6406 22.75 35.9687 25.6875 41.0312ZM20.8125 72.6875C29 50.6094 43.5469 45 50 45C56.4532 45 71 50.6094 79.1875 72.6875C79.75 74.2031 80 75.8281 80 77.4531V77.7031C80 81.7344 76.7344 85 72.7032 85C70.9063 85 69.125 84.7812 67.3907 84.3437L53.6407 80.9062C51.25 80.3125 48.75 80.3125 46.3594 80.9062L32.6094 84.3437C30.875 84.7812 29.0938 85 27.2969 85C23.2657 85 20 81.7344 20 77.7031V77.4531C20 75.8281 20.25 74.2031 20.8125 72.6875ZM75.9063 54.1719C72.0782 51.9844 71.3594 46.0937 74.3125 41.0312C77.2657 35.9687 82.75 33.6406 86.5782 35.8281C90.4063 38.0156 91.125 43.9062 88.1719 48.9687C85.2188 54.0312 79.7344 56.3594 75.9063 54.1719ZM58.4532 39.6406C53.4063 37.9844 51.125 31.2187 53.3594 24.5156C55.5938 17.8125 61.5 13.7187 66.5469 15.375C71.5938 17.0312 73.875 23.7969 71.6407 30.5C69.4063 37.2031 63.5 41.2969 58.4532 39.6406Z" fill="#67E9FF"/>
</svg>
